<svg xmlns="http://www.w3.org/2000/svg" width="1200" height="655" viewBox="0 0 1200 655" role="img" aria-labelledby="title desc">
<title id="title">Two independent design axes</title><desc id="desc">Prediction targets are observations, embeddings, or decision quantities. These combine with online planning, actor learning, and search.</desc>
<defs><marker id="arrow" markerWidth="9" markerHeight="9" refX="7" refY="4" orient="auto"><path d="M0 0 L8 4 L0 8 Z" fill="#53657d"/></marker></defs>
<rect width="1200" height="655" fill="#f7f9fc"/>
<g font-family="Arial, Helvetica, sans-serif" fill="#172b4d">
<text x="45" y="55" font-size="15" font-weight="700" fill="#3a6fad">A MAP OF DESIGN CHOICES</text>
<text x="45" y="102" font-size="34" font-weight="700" fill="#172b4d">What is learned? How is it used?</text>
<text x="45" y="137" font-size="20" font-weight="400" fill="#53657d">Illustrative families, not a performance ranking or exhaustive taxonomy.</text>
<text x="340" y="193" font-size="17" font-weight="700" fill="#172b4d">Online trajectory planning</text>
<text x="615" y="193" font-size="17" font-weight="700" fill="#172b4d">Actor learning in imagination</text>
<text x="890" y="193" font-size="17" font-weight="700" fill="#172b4d">Tree search</text>
<text x="45" y="269" font-size="20" font-weight="700" fill="#172b4d">Reconstruction + dynamics</text>
<rect x="328" y="225" width="262" height="88" rx="12" fill="#eaf2ff"/>
<text x="341" y="274" font-size="17" font-weight="400" fill="#172b4d">PlaNet</text>
<rect x="603" y="225" width="262" height="88" rx="12" fill="#eaf2ff"/>
<text x="616" y="274" font-size="17" font-weight="400" fill="#172b4d">Dreamer through V3</text>
<rect x="878" y="225" width="262" height="88" rx="12" fill="#eaf2ff"/>
<text x="891" y="274" font-size="17" font-weight="400" fill="#172b4d">—</text>
<text x="45" y="384" font-size="20" font-weight="700" fill="#172b4d">Future embeddings</text>
<rect x="328" y="340" width="262" height="88" rx="12" fill="#e9f7f2"/>
<text x="341" y="389" font-size="17" font-weight="400" fill="#172b4d">DINO-WM / V-JEPA 2-AC</text>
<rect x="603" y="340" width="262" height="88" rx="12" fill="#e9f7f2"/>
<text x="616" y="389" font-size="17" font-weight="400" fill="#172b4d">Possible combination</text>
<rect x="878" y="340" width="262" height="88" rx="12" fill="#e9f7f2"/>
<text x="891" y="389" font-size="17" font-weight="400" fill="#172b4d">Possible combination</text>
<text x="45" y="499" font-size="20" font-weight="700" fill="#172b4d">Task / decision objectives</text>
<rect x="328" y="455" width="262" height="88" rx="12" fill="#fff5e8"/>
<text x="341" y="504" font-size="17" font-weight="400" fill="#172b4d">TD-MPC / TD-MPC2</text>
<rect x="603" y="455" width="262" height="88" rx="12" fill="#fff5e8"/>
<text x="616" y="504" font-size="17" font-weight="400" fill="#172b4d">Possible combination</text>
<rect x="878" y="455" width="262" height="88" rx="12" fill="#fff5e8"/>
<text x="891" y="504" font-size="17" font-weight="400" fill="#172b4d">MuZero</text>
<text x="45" y="605" font-size="17" font-weight="400" fill="#53657d">Original schematic • TD-MPC also uses embedding consistency; rows describe emphasis, not disjoint losses.</text>
</g></svg>